<svg width="221" height="140" viewBox="0 0 221 140" fill="none" xmlns="http://www.w3.org/2000/svg">
<g filter="url(#filter0_d)">
<path d="M18.1953 8.5625L25.5 29.1875L32.7656 8.5625H40.4609V37H34.582V29.2266L35.168 15.8086L27.4922 37H23.4688L15.8125 15.8281L16.3984 29.2266V37H10.5391V8.5625H18.1953ZM72.6875 24.6758H61.4375V32.293H74.6406V37H55.5781V8.5625H74.6016V13.3086H61.4375V20.0859H72.6875V24.6758ZM22.0039 55.5625H27.8633V75.25C27.8633 77.0599 27.4596 78.6615 26.6523 80.0547C25.8581 81.4349 24.7318 82.5026 23.2734 83.2578C21.8151 84.013 20.168 84.3906 18.332 84.3906C15.3242 84.3906 12.9805 83.6289 11.3008 82.1055C9.62109 80.569 8.78125 78.401 8.78125 75.6016H14.6797C14.6797 76.9948 14.9727 78.0234 15.5586 78.6875C16.1445 79.3516 17.069 79.6836 18.332 79.6836C19.4518 79.6836 20.3438 79.2995 21.0078 78.5312C21.6719 77.763 22.0039 76.6693 22.0039 75.25V55.5625ZM59.9922 71.6758H48.7422V79.293H61.9453V84H42.8828V55.5625H61.9062V60.3086H48.7422V67.0859H59.9922V71.6758ZM98.5078 84H92.6484L81.2422 65.2891V84H75.3828V55.5625H81.2422L92.668 74.3125V55.5625H98.5078V84ZM33.0391 127.406C31.9844 128.669 30.4935 129.652 28.5664 130.355C26.6393 131.046 24.5039 131.391 22.1602 131.391C19.6992 131.391 17.5378 130.857 15.6758 129.789C13.8268 128.708 12.3945 127.146 11.3789 125.102C10.3763 123.057 9.86198 120.655 9.83594 117.895V115.961C9.83594 113.122 10.3112 110.668 11.2617 108.598C12.2253 106.514 13.6055 104.926 15.4023 103.832C17.2122 102.725 19.3281 102.172 21.75 102.172C25.1224 102.172 27.7591 102.979 29.6602 104.594C31.5612 106.195 32.6875 108.533 33.0391 111.605H27.3359C27.0755 109.978 26.4961 108.786 25.5977 108.031C24.7122 107.276 23.4883 106.898 21.9258 106.898C19.9336 106.898 18.4167 107.647 17.375 109.145C16.3333 110.642 15.806 112.868 15.793 115.824V117.641C15.793 120.622 16.3594 122.875 17.4922 124.398C18.625 125.922 20.2852 126.684 22.4727 126.684C24.6732 126.684 26.2422 126.215 27.1797 125.277V120.375H21.8477V116.059H33.0391V127.406ZM63.8594 125.141H53.5859L51.6328 131H45.4023L55.9883 102.562H61.418L72.0625 131H65.832L63.8594 125.141ZM55.168 120.395H62.2773L58.7031 109.75L55.168 120.395ZM90.0898 122.27H85.4023L84.7383 102.562H90.7539L90.0898 122.27ZM87.7461 125.355C88.6966 125.355 89.4583 125.635 90.0312 126.195C90.6172 126.755 90.9102 127.471 90.9102 128.344C90.9102 129.203 90.6172 129.913 90.0312 130.473C89.4583 131.033 88.6966 131.312 87.7461 131.312C86.8086 131.312 86.0469 131.033 85.4609 130.473C84.888 129.913 84.6016 129.203 84.6016 128.344C84.6016 127.484 84.888 126.775 85.4609 126.215C86.0469 125.642 86.8086 125.355 87.7461 125.355Z" fill="white"/>
<path d="M219.625 62C219.625 85.5412 200.541 104.625 177 104.625C153.459 104.625 134.375 85.5412 134.375 62C134.375 38.4588 153.459 19.375 177 19.375C200.541 19.375 219.625 38.4588 219.625 62ZM211.375 62L211.374 61.9515L206.895 65.8601L196.122 55.8055L198.95 41.3069L204.846 41.8349C200.568 35.9541 194.532 31.5071 187.536 29.2638L189.883 34.7533L177 41.8906L164.117 34.7535L166.464 29.264C159.48 31.5032 153.439 35.9448 149.154 41.8351L155.095 41.3069L157.878 55.8055L147.105 65.8601L142.626 61.9515L142.625 62C142.625 69.3932 144.945 76.4292 149.238 82.2797L150.562 76.4537L165.195 78.2492L171.434 91.6256L166.295 94.6825C173.204 96.9379 180.782 96.9424 187.705 94.6825L182.566 91.6256L188.805 78.2492L203.438 76.4537L204.762 82.2797C209.055 76.4292 211.375 69.3932 211.375 62ZM168.732 73.9575L163.594 58.2633L177 48.5477L190.406 58.2633L185.314 73.9575H168.732Z" fill="white"/>
</g>
<defs>
<filter id="filter0_d" x="0" y="0" width="221" height="139.391" filterUnits="userSpaceOnUse" color-interpolation-filters="sRGB">
<feFlood flood-opacity="0" result="BackgroundImageFix"/>
<feColorMatrix in="SourceAlpha" type="matrix" values="0 0 0 0 0 0 0 0 0 0 0 0 0 0 0 0 0 0 127 0"/>
<feOffset dx="-6" dy="6"/>
<feGaussianBlur stdDeviation="1"/>
<feColorMatrix type="matrix" values="0 0 0 0 0 0 0 0 0 0 0 0 0 0 0 0 0 0 0.5 0"/>
<feBlend mode="normal" in2="BackgroundImageFix" result="effect1_dropShadow"/>
<feBlend mode="normal" in="SourceGraphic" in2="effect1_dropShadow" result="shape"/>
</filter>
</defs>
</svg>
